<svg width="286" height="65" viewBox="0 0 286 65" fill="none" xmlns="http://www.w3.org/2000/svg">
<path d="M278.261 0.204309C273.538 3.27826e-07 269.458 3.4732 269.029 7.96792C269.029 8.17222 269.029 8.17222 269.029 8.37652C269.029 12.2583 272.035 15.3229 276.114 15.3229C276.329 15.3229 276.329 15.3229 276.543 15.3229C281.267 15.7315 285.56 12.4626 285.99 7.96792C285.99 7.76361 285.99 7.5593 285.99 7.1507C286.204 3.26889 282.984 0.204306 278.905 0C278.905 0.204308 278.476 0.204309 278.261 0.204309Z" fill="#009CA6"/>
<path d="M56.4828 8.58079C56.9122 7.96787 56.6975 7.15065 56.0534 6.94635C56.0534 6.94635 56.0534 6.94635 55.8387 6.94635H55.624C51.1155 5.51621 46.1775 4.90329 41.4543 4.90329C33.5106 4.69898 25.3523 6.33343 18.2674 9.60232C6.67396 14.9143 -0.410914 26.1511 0.0184731 38.2051C0.0184731 57.0012 14.6176 64.9691 31.149 64.9691C37.1604 65.1734 42.9571 64.3562 48.5391 62.7217C49.3979 62.5174 49.8273 61.7002 49.6126 60.6787L48.3245 51.4849C48.1098 50.4634 47.0363 50.4634 46.3922 50.6677C42.9571 51.6892 39.3073 52.0979 35.6576 52.0979C24.7082 52.0979 17.838 46.5816 17.838 36.9793C17.6233 30.4415 20.8437 24.5166 26.4257 20.8391C30.7196 18.5918 35.4429 17.3659 40.3808 17.5702C44.0306 17.5702 47.6804 17.9788 51.1155 19.0004C51.9742 19.409 52.833 19.0004 53.2624 18.3875V18.1831L55.8387 10.6238L56.4828 8.58079Z" fill="black"/>
<path d="M84.1783 20.4307C82.8901 20.4307 81.6019 20.4307 80.3138 20.635C68.5057 21.4522 58.8445 29.2158 55.8387 40.044C55.4094 42.0871 54.98 44.3344 54.98 46.3775C54.98 48.4205 55.1947 50.2593 55.8387 52.098C58.4151 60.8832 67.0028 64.9693 76.2346 64.9693C77.5228 64.9693 78.8109 64.9693 80.0991 64.765C94.4835 63.3348 105.433 54.3454 105.433 38.4095C105.648 27.1727 95.9864 20.4307 84.1783 20.4307ZM80.3138 53.1195C79.8844 53.1195 79.2403 53.3239 78.5962 53.3239C74.7318 53.3239 72.1554 51.0765 72.1554 46.1732C72.1554 41.8827 74.3024 33.5062 80.3138 32.2804C80.9579 32.0761 81.6019 32.0761 82.0313 32.0761C86.7546 32.0761 88.4721 35.345 88.4721 39.4311C88.4721 44.3344 86.1105 51.8937 80.3138 53.1195Z" fill="black"/>
<path d="M214.712 22.2691C209.774 21.0433 204.836 20.2261 199.683 20.2261C196.463 20.2261 193.457 20.4304 190.237 21.0433C172.847 24.3122 165.332 36.5705 165.332 49.0332C165.332 58.8398 171.988 64.969 180.361 64.969C184.011 64.969 187.446 63.9475 190.451 61.9044C192.598 60.4743 194.316 58.4312 195.604 56.3882H195.819C195.819 58.4312 195.604 60.27 195.389 62.313C195.175 63.1302 195.819 63.7432 196.677 63.9475C196.677 63.9475 196.677 63.9475 196.892 63.9475H208.7C209.774 63.9475 210.418 63.5388 210.418 62.313C210.633 56.3882 211.062 50.6676 212.135 44.947L216.215 24.7208C216.644 23.9036 216.215 22.8821 215.356 22.6777C214.926 22.4734 214.926 22.4734 214.712 22.2691ZM196.892 39.2265C195.389 46.9901 192.813 50.4633 190.237 51.8934C189.378 52.302 188.304 52.7107 187.446 52.7107C184.869 52.7107 182.508 50.6676 182.508 46.5815C182.508 41.2696 185.513 36.1619 190.237 33.3016C191.74 32.4844 193.457 32.0758 195.175 32.0758C196.033 32.0758 197.107 32.0758 197.966 32.2801L196.892 39.2265Z" fill="black"/>
<path d="M146.224 20.4305C142.575 20.4305 139.14 21.2477 135.919 22.6778C134.631 23.2907 133.558 24.108 132.484 24.9252H132.269L135.919 7.96783L136.993 3.2688C137.207 2.65589 136.778 2.24727 136.349 2.04297H136.134C135.919 2.04297 135.919 2.04297 135.704 2.04297H122.608C121.749 2.04297 121.105 2.65588 120.891 3.47311L112.303 43.1084C111.659 45.9687 111.229 49.0332 111.229 51.8935C111.229 59.6571 116.597 64.9691 129.478 64.9691C131.625 64.9691 133.987 64.7648 136.134 64.5605C150.948 62.3131 161.682 50.0548 161.253 35.9577C161.038 26.9682 155.456 20.4305 146.224 20.4305ZM135.919 52.5064C134.846 52.915 133.772 53.3237 132.484 53.3237C130.123 53.528 128.19 51.6892 127.976 49.6462C127.976 49.6462 127.976 49.4418 127.976 49.2375C127.976 47.6031 127.976 46.173 128.405 44.7428L128.62 43.7213C129.693 38.0007 132.699 34.5275 135.919 33.3017C136.778 32.8931 137.637 32.8931 138.496 32.8931C141.716 32.8931 143.863 35.3448 143.863 39.0223C144.078 44.5385 140.857 49.6461 135.919 52.5064Z" fill="black"/>
<path d="M281.696 22.0649H268.814C267.956 22.0649 267.097 22.6779 267.097 23.4951L259.368 62.7217C259.153 63.3347 259.582 64.1519 260.227 64.3562C260.441 64.3562 260.656 64.3562 260.871 64.3562H273.538C274.611 64.3562 275.255 63.7433 275.47 62.7217L283.199 23.0865C283.199 22.6779 282.769 22.0649 281.696 22.0649Z" fill="black"/>
<path d="M255.933 22.2694C251.854 21.0436 247.774 20.4307 243.481 20.4307C230.599 20.4307 221.153 26.1512 221.153 35.9579C221.153 42.2914 227.164 45.7645 232.746 47.8076C236.825 49.2377 238.328 50.4636 238.328 51.8937C238.328 53.1195 237.04 54.1411 233.819 54.1411C229.311 53.9368 225.017 52.9152 220.723 51.0765C219.864 50.8722 219.22 51.0765 219.006 52.098L216.215 59.8616C215.785 60.8832 216.215 61.4961 217.073 61.9047C221.797 63.9477 226.949 64.9693 232.102 64.9693C245.628 65.1736 255.289 59.6573 255.289 49.442C255.289 41.8827 247.774 39.0225 243.266 37.388C239.401 35.9579 237.469 34.732 237.469 33.7105C237.469 32.2804 239.187 31.4632 242.192 31.4632C245.413 31.4632 248.633 31.8718 251.639 32.8933C252.712 33.3019 253.142 32.8933 253.571 31.8718L256.362 23.6995C257.006 23.0866 257.006 22.4737 255.933 22.2694Z" fill="black"/>
</svg>
